<svg width="36" height="36" viewBox="0 0 36 36" fill="none" xmlns="http://www.w3.org/2000/svg">
<path d="M15.375 6.00005C15.375 5.53611 15.0903 5.11976 14.6579 4.95158C14.2255 4.78338 13.7342 4.89786 13.4207 5.23986L5.17073 14.2399C4.86926 14.5687 4.79061 15.0447 4.97025 15.453C5.14991 15.8615 5.55389 16.125 6.00003 16.125H30C30.6213 16.125 31.125 15.6213 31.125 15C31.125 14.3787 30.6213 13.875 30 13.875H15.375V6.00005Z" fill="#39FF14"/>
<path d="M20.625 30V22.125H6.00003C5.3787 22.125 4.87503 21.6213 4.87503 21C4.87503 20.3787 5.3787 19.875 6.00003 19.875H30C30.4461 19.875 30.8502 20.1387 31.0298 20.547C31.2095 20.9555 31.1309 21.4314 30.8294 21.7602L22.5794 30.7602C22.2659 31.1022 21.7746 31.2167 21.3422 31.0485C20.9099 30.8804 20.625 30.464 20.625 30Z" fill="#39FF14"/>
</svg>
